<svg width="496" height="370" viewBox="0 0 496 370" fill="none" xmlns="http://www.w3.org/2000/svg">
<path d="M203.045 202.909L205.605 205.296L205.605 205.296L203.045 202.909ZM260.412 180.504L257.853 178.117L257.853 178.117L260.412 180.504ZM164.046 166.529L161.486 164.142L161.486 164.142L164.046 166.529ZM221.413 144.125L218.853 141.737L218.853 141.737L221.413 144.125ZM239.399 129.974C240.718 128.56 240.641 126.346 239.228 125.027C237.814 123.709 235.599 123.786 234.281 125.199L239.399 129.974ZM178.747 223.825C177.429 225.239 177.506 227.454 178.919 228.772C180.333 230.091 182.548 230.014 183.866 228.6L178.747 223.825ZM278.399 166.354C279.718 164.94 279.641 162.725 278.227 161.407C276.814 160.088 274.599 160.165 273.28 161.579L278.399 166.354ZM139.748 187.446C138.429 188.859 138.506 191.074 139.92 192.392C141.333 193.711 143.548 193.634 144.867 192.22L139.748 187.446ZM124.803 129.922L122.243 127.534L122.243 127.534L124.803 129.922ZM182.169 107.518L184.729 109.905L184.729 109.905L182.169 107.518ZM85.803 93.5422L83.2437 91.1548L83.2437 91.1548L85.803 93.5422ZM143.17 71.1379L145.729 73.5254L145.729 73.5254L143.17 71.1379ZM161.157 56.987C162.475 55.5735 162.398 53.3588 160.985 52.0403C159.571 50.7217 157.357 50.7987 156.038 52.2122L161.157 56.987ZM100.505 150.839C99.1861 152.252 99.2631 154.467 100.677 155.785C102.09 157.104 104.305 157.027 105.623 155.613L100.505 150.839ZM200.156 93.3667C201.475 91.9532 201.398 89.7385 199.984 88.42C198.571 87.1014 196.356 87.1784 195.038 88.5919L200.156 93.3667ZM61.5051 114.459C60.1866 115.872 60.2635 118.087 61.677 119.406C63.0905 120.724 65.3053 120.647 66.6238 119.234L61.5051 114.459ZM142.981 306.881L145.54 309.268L145.54 309.268L142.981 306.881ZM200.348 284.477L202.907 286.864L202.907 286.864L200.348 284.477ZM103.981 270.501L101.422 268.114L101.422 268.114L103.981 270.501ZM161.348 248.097L158.789 245.71L158.789 245.71L161.348 248.097ZM179.335 233.946C180.653 232.533 180.576 230.318 179.163 228.999C177.75 227.681 175.535 227.758 174.216 229.171L179.335 233.946ZM118.683 327.798C117.364 329.211 117.441 331.426 118.855 332.744C120.268 334.063 122.483 333.986 123.802 332.573L118.683 327.798ZM218.334 270.326C219.653 268.912 219.576 266.698 218.162 265.379C216.749 264.061 214.534 264.138 213.216 265.551L218.334 270.326ZM79.6833 291.418C78.3648 292.831 78.4418 295.046 79.8553 296.365C81.2687 297.683 83.4835 297.606 84.802 296.193L79.6833 291.418ZM224.354 62.784L221.795 60.3965L221.795 60.3965L224.354 62.784ZM281.721 40.3797L279.162 37.9923L279.162 37.9923L281.721 40.3797ZM245.281 6.38742C246.599 4.97393 246.522 2.75919 245.109 1.44066C243.695 0.122122 241.481 0.199096 240.162 1.61258L245.281 6.38742ZM200.056 83.7006C198.738 85.1141 198.815 87.3288 200.228 88.6473C201.642 89.9659 203.856 89.8889 205.175 88.4754L200.056 83.7006ZM299.708 26.2288C301.026 24.8153 300.949 22.6006 299.536 21.282C298.122 19.9635 295.908 20.0405 294.589 21.4539L299.708 26.2288ZM187.914 28.7917C189.232 27.3782 189.155 25.1634 187.742 23.8449C186.328 22.5264 184.114 22.6034 182.795 24.0168L187.914 28.7917ZM161.057 47.3209C159.738 48.7344 159.815 50.9491 161.229 52.2676C162.642 53.5862 164.857 53.5092 166.175 52.0957L161.057 47.3209ZM181.737 343.033L184.296 345.421L184.296 345.421L181.737 343.033ZM239.104 320.629L236.544 318.242L236.544 318.242L239.104 320.629ZM142.737 306.654L140.178 304.266L140.178 304.266L142.737 306.654ZM200.104 284.249L197.545 281.862L197.545 281.862L200.104 284.249ZM218.091 270.099C219.409 268.685 219.332 266.47 217.919 265.152C216.505 263.833 214.291 263.91 212.972 265.324L218.091 270.099ZM157.439 363.95C156.12 365.363 156.197 367.578 157.611 368.897C159.024 370.215 161.239 370.138 162.557 368.725L157.439 363.95ZM257.09 306.478C258.409 305.065 258.332 302.85 256.918 301.531C255.505 300.213 253.29 300.29 251.972 301.703L257.09 306.478ZM118.439 327.57C117.121 328.984 117.198 331.199 118.611 332.517C120.025 333.836 122.239 333.759 123.558 332.345L118.439 327.57ZM64.7381 233.894L67.2974 236.282L67.2974 236.282L64.7381 233.894ZM122.105 211.49L119.546 209.103L119.546 209.103L122.105 211.49ZM25.7386 197.515L23.1792 195.127L23.1792 195.127L25.7386 197.515ZM83.1055 175.11L80.5462 172.723L80.5462 172.723L83.1055 175.11ZM101.092 160.959C102.411 159.546 102.334 157.331 100.92 156.013C99.5068 154.694 97.2921 154.771 95.9736 156.185L101.092 160.959ZM40.4402 254.811C39.1216 256.224 39.1986 258.439 40.6121 259.758C42.0256 261.076 44.2403 260.999 45.5588 259.586L40.4402 254.811ZM140.092 197.339C141.41 195.926 141.333 193.711 139.92 192.392C138.506 191.074 136.292 191.151 134.973 192.564L140.092 197.339ZM1.44066 218.431C0.122123 219.845 0.199096 222.059 1.61258 223.378C3.02607 224.697 5.24081 224.62 6.55934 223.206L1.44066 218.431ZM377.03 88.963C375.711 90.3765 375.788 92.5912 377.202 93.9098C378.615 95.2283 380.83 95.1513 382.148 93.7378L377.03 88.963ZM436.956 68.9462L439.515 71.3336L439.515 71.3336L436.956 68.9462ZM338.03 52.5833C336.712 53.9968 336.789 56.2115 338.202 57.5301C339.616 58.8486 341.83 58.7716 343.149 57.3581L338.03 52.5833ZM397.957 32.5665L400.516 34.9539L397.957 32.5665ZM415.943 18.4155C417.262 17.0021 417.185 14.7873 415.771 13.4688C414.358 12.1502 412.143 12.2272 410.825 13.6407L415.943 18.4155ZM454.943 54.7952C456.261 53.3818 456.184 51.167 454.771 49.8485C453.357 48.53 451.143 48.6069 449.824 50.0204L454.943 54.7952ZM419.595 244.91L417.036 242.522L417.036 242.522L419.595 244.91ZM476.962 222.506L474.403 220.118L474.403 220.118L476.962 222.506ZM380.596 208.53L378.036 206.143L378.036 206.143L380.596 208.53ZM437.963 186.126L440.522 188.513L440.522 188.513L437.963 186.126ZM455.949 171.975C457.268 170.562 457.191 168.347 455.777 167.028C454.364 165.71 452.149 165.787 450.831 167.2L455.949 171.975ZM395.297 265.826C393.979 267.24 394.056 269.455 395.469 270.773C396.883 272.092 399.097 272.015 400.416 270.601L395.297 265.826ZM494.949 208.355C496.267 206.941 496.19 204.726 494.777 203.408C493.364 202.089 491.149 202.166 489.83 203.58L494.949 208.355ZM356.298 229.447C354.979 230.86 355.056 233.075 356.47 234.394C357.883 235.712 360.098 235.635 361.417 234.222L356.298 229.447ZM281.288 275.895L278.729 273.508L278.729 273.508L281.288 275.895ZM338.655 253.491L336.096 251.104L336.096 251.104L338.655 253.491ZM242.288 239.516L239.729 237.128L239.729 237.128L242.288 239.516ZM299.655 217.112L302.215 219.499L302.215 219.499L299.655 217.112ZM317.642 202.961C318.961 201.547 318.884 199.332 317.47 198.014C316.057 196.695 313.842 196.772 312.523 198.186L317.642 202.961ZM256.99 296.812C255.672 298.226 255.749 300.44 257.162 301.759C258.576 303.077 260.79 303 262.109 301.587L256.99 296.812ZM356.642 239.34C357.96 237.927 357.883 235.712 356.47 234.394C355.056 233.075 352.842 233.152 351.523 234.565L356.642 239.34ZM217.991 260.432C216.672 261.846 216.749 264.061 218.163 265.379C219.576 266.698 221.791 266.621 223.109 265.207L217.991 260.432ZM263.11 98.9363L260.55 96.5489L260.55 96.5489L263.11 98.9363ZM320.477 76.5321L323.036 78.9195L323.036 78.9195L320.477 76.5321ZM224.11 62.5566L226.67 64.944L226.67 64.944L224.11 62.5566ZM281.477 40.1523L278.918 37.7649L278.918 37.7649L281.477 40.1523ZM299.464 26.0014C300.782 24.5879 300.706 22.3732 299.292 21.0547C297.879 19.7361 295.664 19.8131 294.345 21.2266L299.464 26.0014ZM238.812 119.853C237.493 121.266 237.57 123.481 238.984 124.8C240.397 126.118 242.612 126.041 243.931 124.628L238.812 119.853ZM338.463 62.3811C339.782 60.9676 339.705 58.7529 338.292 57.4344C336.878 56.1158 334.663 56.1928 333.345 57.6063L338.463 62.3811ZM199.812 83.4732C198.494 84.8867 198.571 87.1014 199.984 88.42C201.398 89.7385 203.613 89.6615 204.931 88.248L199.812 83.4732ZM341.352 171.923L338.793 169.536L338.793 169.536L341.352 171.923ZM398.719 149.519L396.16 147.131L396.16 147.131L398.719 149.519ZM302.353 135.543L299.794 133.156L299.794 133.156L302.353 135.543ZM359.72 113.139L357.161 110.752L357.161 110.752L359.72 113.139ZM377.707 98.9882C379.025 97.5748 378.948 95.36 377.535 94.0415C376.121 92.7229 373.906 92.7999 372.588 94.2134L377.707 98.9882ZM317.055 192.84C315.736 194.253 315.813 196.468 317.226 197.786C318.64 199.105 320.855 199.028 322.173 197.615L317.055 192.84ZM416.706 135.368C418.025 133.954 417.948 131.74 416.534 130.421C415.121 129.103 412.906 129.18 411.587 130.593L416.706 135.368ZM278.055 156.46C276.737 157.874 276.813 160.088 278.227 161.407C279.64 162.725 281.855 162.648 283.174 161.235L278.055 156.46ZM205.605 205.296C212.372 198.042 217.151 195.303 220.741 194.375C224.278 193.46 227.147 194.146 230.86 195.097C234.505 196.031 238.995 197.231 244.468 195.816C249.889 194.414 255.772 190.61 262.972 182.892L257.853 178.117C251.086 185.371 246.306 188.111 242.716 189.039C239.18 189.953 236.311 189.267 232.597 188.316C228.953 187.382 224.463 186.182 218.989 187.597C213.569 188.999 207.686 192.803 200.486 200.521L205.605 205.296ZM166.605 168.916C173.372 161.662 178.152 158.923 181.742 157.995C185.278 157.081 188.147 157.766 191.861 158.717C195.506 159.651 199.995 160.851 205.469 159.436C210.89 158.035 216.772 154.23 223.972 146.512L218.853 141.737C212.086 148.992 207.307 151.731 203.717 152.659C200.18 153.573 197.312 152.888 193.598 151.936C189.953 151.003 185.463 149.803 179.99 151.218C174.569 152.619 168.686 156.423 161.486 164.142L166.605 168.916ZM218.853 141.737C211.654 149.455 208.267 155.588 207.245 161.093C206.214 166.652 207.722 171.047 208.907 174.619C210.114 178.257 210.997 181.071 210.33 184.663C209.654 188.309 207.253 193.267 200.486 200.521L205.605 205.296C212.804 197.578 216.191 191.445 217.213 185.94C218.244 180.382 216.736 175.986 215.551 172.415C214.344 168.776 213.461 165.962 214.128 162.37C214.804 158.725 217.205 153.767 223.972 146.512L218.853 141.737ZM223.972 146.512L239.399 129.974L234.281 125.199L218.853 141.737L223.972 146.512ZM183.866 228.6L205.605 205.296L200.486 200.521L178.747 223.825L183.866 228.6ZM262.972 182.892L278.399 166.354L273.28 161.579L257.853 178.117L262.972 182.892ZM161.486 164.142L139.748 187.446L144.867 192.22L166.605 168.916L161.486 164.142ZM127.362 132.309C134.129 125.055 138.909 122.316 142.498 121.388C146.035 120.474 148.904 121.159 152.617 122.11C156.262 123.044 160.752 124.244 166.226 122.829C171.646 121.428 177.529 117.623 184.729 109.905L179.61 105.13C172.843 112.385 168.064 115.124 164.474 116.052C160.937 116.966 158.068 116.281 154.355 115.329C150.71 114.395 146.22 113.196 140.746 114.611C135.326 116.012 129.443 119.816 122.243 127.534L127.362 132.309ZM88.3624 95.9296C95.1294 88.6753 99.909 85.9361 103.499 85.0081C107.036 84.0939 109.904 84.7792 113.618 85.7306C117.263 86.6643 121.752 87.8642 127.226 86.4492C132.647 85.048 138.53 81.2435 145.729 73.5254L140.611 68.7505C133.844 76.0049 129.064 78.744 125.474 79.672C121.937 80.5863 119.069 79.901 115.355 78.9496C111.71 78.0158 107.221 76.8159 101.747 78.2309C96.3263 79.6322 90.4433 83.4366 83.2437 91.1548L88.3624 95.9296ZM140.611 68.7505C133.411 76.4686 130.024 82.6015 129.003 88.1064C127.971 93.6651 129.48 98.0606 130.664 101.632C131.871 105.27 132.754 108.085 132.087 111.676C131.411 115.322 129.01 120.28 122.243 127.534L127.362 132.309C134.562 124.591 137.948 118.458 138.97 112.953C140.002 107.395 138.493 102.999 137.308 99.428C136.101 95.7894 135.219 92.9753 135.885 89.3835C136.562 85.7379 138.962 80.7797 145.729 73.5254L140.611 68.7505ZM145.729 73.5254L161.157 56.987L156.038 52.2122L140.611 68.7505L145.729 73.5254ZM105.623 155.613L127.362 132.309L122.243 127.534L100.505 150.839L105.623 155.613ZM184.729 109.905L200.156 93.3667L195.038 88.5919L179.61 105.13L184.729 109.905ZM83.2437 91.1548L61.5051 114.459L66.6238 119.234L88.3624 95.9296L83.2437 91.1548ZM145.54 309.268C151.992 302.352 156.639 299.539 160.167 298.489C163.596 297.468 166.408 297.965 169.789 298.813C173.073 299.637 177.271 300.943 182.194 300.233C187.233 299.506 192.603 296.788 199.021 290.774L194.235 285.666C188.448 291.088 184.34 292.851 181.194 293.305C177.931 293.775 175.238 292.963 171.492 292.024C167.842 291.108 163.483 290.198 158.17 291.78C152.956 293.332 147.288 297.132 140.421 304.494L145.54 309.268ZM199.021 290.774C200.271 289.603 201.564 288.304 202.907 286.864L197.788 282.089C196.541 283.426 195.358 284.613 194.235 285.666L199.021 290.774ZM106.541 272.889C113.308 265.634 118.087 262.895 121.677 261.967C125.214 261.053 128.083 261.738 131.796 262.69C135.441 263.624 139.931 264.823 145.404 263.408C150.825 262.007 156.708 258.203 163.908 250.485L158.789 245.71C152.022 252.964 147.242 255.703 143.652 256.631C140.116 257.545 137.247 256.86 133.533 255.909C129.889 254.975 125.399 253.775 119.925 255.19C114.505 256.591 108.622 260.396 101.422 268.114L106.541 272.889ZM158.789 245.71C151.922 253.071 148.524 258.989 147.338 264.298C146.129 269.708 147.339 273.993 148.506 277.571C149.703 281.243 150.701 283.873 150.458 287.161C150.223 290.331 148.75 294.551 143.743 300.7L149.171 305.12C154.724 298.3 157.063 292.754 157.438 287.677C157.805 282.717 156.211 278.619 155.161 275.401C154.08 272.087 153.389 269.317 154.169 265.825C154.972 262.232 157.455 257.401 163.908 250.485L158.789 245.71ZM143.743 300.7C142.771 301.894 141.669 303.157 140.421 304.494L145.54 309.268C146.883 307.829 148.089 306.448 149.171 305.12L143.743 300.7ZM163.908 250.485L179.335 233.946L174.216 229.171L158.789 245.71L163.908 250.485ZM123.802 332.573L145.54 309.268L140.421 304.494L118.683 327.798L123.802 332.573ZM202.907 286.864L218.334 270.326L213.216 265.551L197.788 282.089L202.907 286.864ZM101.422 268.114L79.6833 291.418L84.802 296.193L106.541 272.889L101.422 268.114ZM226.913 65.1714C233.366 58.2545 238.012 55.4421 241.54 54.3916C244.97 53.3707 247.781 53.8683 251.162 54.7162C254.446 55.5397 258.644 56.8461 263.567 56.1359C268.605 55.4089 273.976 52.691 280.394 46.6777L275.608 41.5695C269.821 46.9911 265.713 48.7537 262.567 49.2076C259.305 49.6783 256.612 48.8661 252.865 47.9264C249.215 47.0111 244.856 46.1009 239.543 47.6826C234.33 49.2347 228.662 53.0352 221.795 60.3965L226.913 65.1714ZM280.394 46.6777C281.644 45.5065 282.937 44.2067 284.28 42.7671L279.162 37.9923C277.914 39.3296 276.731 40.5168 275.608 41.5695L280.394 46.6777ZM240.162 1.61258C233.295 8.97393 229.897 14.8922 228.711 20.2009C227.502 25.6109 228.713 29.8959 229.879 33.4734C231.077 37.1459 232.074 39.7761 231.831 43.0633C231.596 46.2333 230.123 50.4538 225.117 56.6028L230.545 61.0226C236.098 54.2026 238.436 48.6567 238.812 43.5795C239.179 38.6197 237.584 34.5221 236.534 31.3033C235.454 27.9894 234.762 25.2193 235.543 21.7276C236.346 18.1345 238.829 13.3043 245.281 6.38742L240.162 1.61258ZM225.117 56.6027C224.144 57.7967 223.042 59.0592 221.795 60.3965L226.913 65.1714C228.256 63.7318 229.463 62.3509 230.545 61.0226L225.117 56.6027ZM205.175 88.4754L226.913 65.1714L221.795 60.3965L200.056 83.7006L205.175 88.4754ZM284.28 42.7671L299.708 26.2288L294.589 21.4539L279.162 37.9923L284.28 42.7671ZM182.795 24.0168L161.057 47.3209L166.175 52.0957L187.914 28.7917L182.795 24.0168ZM184.296 345.421C191.063 338.166 195.843 335.427 199.432 334.499C202.969 333.585 205.838 334.27 209.551 335.222C213.196 336.156 217.686 337.355 223.16 335.94C228.58 334.539 234.463 330.735 241.663 323.017L236.544 318.242C229.777 325.496 224.998 328.235 221.408 329.163C217.871 330.077 215.002 329.392 211.289 328.441C207.644 327.507 203.154 326.307 197.681 327.722C192.26 329.123 186.377 332.928 179.177 340.646L184.296 345.421ZM145.296 309.041C146.544 307.704 147.727 306.517 148.85 305.464L144.064 300.356C142.814 301.527 141.52 302.827 140.178 304.266L145.296 309.041ZM148.85 305.464C154.637 300.043 158.745 298.28 161.891 297.826C165.153 297.355 167.846 298.167 171.593 299.107C175.243 300.022 179.602 300.933 184.915 299.351C190.128 297.799 195.797 293.998 202.663 286.637L197.545 281.862C191.092 288.779 186.446 291.591 182.918 292.642C179.488 293.663 176.677 293.165 173.296 292.317C170.012 291.494 165.814 290.187 160.891 290.898C155.852 291.625 150.482 294.343 144.064 300.356L148.85 305.464ZM197.545 281.862C196.202 283.301 194.995 284.682 193.914 286.01L199.342 290.43C200.314 289.236 201.416 287.974 202.663 286.637L197.545 281.862ZM193.914 286.01C188.36 292.83 186.022 298.376 185.646 303.454C185.279 308.413 186.874 312.511 187.924 315.73C189.004 319.044 189.696 321.814 188.916 325.306C188.113 328.899 185.63 333.729 179.177 340.646L184.296 345.421C191.163 338.059 194.561 332.141 195.747 326.832C196.956 321.422 195.745 317.137 194.579 313.56C193.381 309.887 192.384 307.257 192.627 303.97C192.862 300.8 194.335 296.579 199.342 290.43L193.914 286.01ZM202.663 286.637L218.091 270.099L212.972 265.324L197.545 281.862L202.663 286.637ZM162.557 368.725L184.296 345.421L179.177 340.646L157.439 363.95L162.557 368.725ZM241.663 323.017L257.09 306.478L251.972 301.703L236.544 318.242L241.663 323.017ZM140.178 304.266L118.439 327.57L123.558 332.345L145.296 309.041L140.178 304.266ZM67.2974 236.282C74.0645 229.027 78.8441 226.288 82.4339 225.36C85.9707 224.446 88.8394 225.131 92.5529 226.083C96.1978 227.016 100.687 228.216 106.161 226.801C111.582 225.4 117.465 221.596 124.664 213.877L119.546 209.103C112.779 216.357 107.999 219.096 104.409 220.024C100.872 220.938 98.0037 220.253 94.2902 219.302C90.6454 218.368 86.1556 217.168 80.682 218.583C75.2613 219.984 69.3784 223.789 62.1787 231.507L67.2974 236.282ZM28.2979 199.902C35.065 192.648 39.8445 189.909 43.4344 188.981C46.9712 188.066 49.8399 188.752 53.5534 189.703C57.1982 190.637 61.688 191.837 67.1616 190.422C72.5823 189.02 78.4652 185.216 85.6649 177.498L80.5462 172.723C73.7791 179.977 68.9996 182.716 65.4097 183.644C61.8729 184.559 59.0042 183.873 55.2907 182.922C51.6459 181.988 47.1561 180.788 41.6825 182.203C36.2618 183.605 30.3789 187.409 23.1792 195.127L28.2979 199.902ZM80.5462 172.723C73.3465 180.441 69.9596 186.574 68.9381 192.079C67.9066 197.637 69.4152 202.033 70.5998 205.604C71.8067 209.243 72.6895 212.057 72.023 215.649C71.3465 219.294 68.9458 224.253 62.1787 231.507L67.2974 236.282C74.4971 228.564 77.884 222.431 78.9055 216.926C79.937 211.367 78.4284 206.972 77.2438 203.4C76.0369 199.762 75.1541 196.948 75.8206 193.356C76.4971 189.71 78.8978 184.752 85.6649 177.498L80.5462 172.723ZM85.6649 177.498L101.092 160.959L95.9736 156.185L80.5462 172.723L85.6649 177.498ZM45.5588 259.586L67.2974 236.282L62.1787 231.507L40.4402 254.811L45.5588 259.586ZM124.664 213.877L140.092 197.339L134.973 192.564L119.546 209.103L124.664 213.877ZM23.1792 195.127L1.44066 218.431L6.55934 223.206L28.2979 199.902L23.1792 195.127ZM382.148 93.7378C388.916 86.4835 393.695 83.7443 397.285 82.8164C400.822 81.9021 403.69 82.5874 407.404 83.5388C411.049 84.4726 415.539 85.6724 421.012 84.2575C426.433 82.8562 432.316 79.0517 439.515 71.3336L434.397 66.5588C427.63 73.8131 422.85 76.5523 419.26 77.4802C415.724 78.3945 412.855 77.7092 409.141 76.7578C405.496 75.824 401.007 74.6242 395.533 76.0391C390.112 77.4404 384.229 81.2449 377.03 88.963L382.148 93.7378ZM343.149 57.3581C349.916 50.1038 354.696 47.3646 358.285 46.4367C361.822 45.5224 364.691 46.2077 368.405 47.1591C372.049 48.0929 376.539 49.2927 382.013 47.8778C387.433 46.4765 393.316 42.672 400.516 34.9539L395.397 30.179C388.63 37.4334 383.851 40.1725 380.261 41.1005C376.724 42.0148 373.855 41.3295 370.142 40.3781C366.497 39.4443 362.007 38.2445 356.534 39.6594C351.113 41.0607 345.23 44.8652 338.03 52.5833L343.149 57.3581ZM395.397 30.179C388.198 37.8972 384.811 44.0301 383.789 49.5349C382.758 55.0936 384.266 59.4892 385.451 63.0604C386.658 66.6989 387.541 69.5131 386.874 73.1048C386.198 76.7504 383.797 81.7087 377.03 88.963L382.148 93.7378C389.348 86.0197 392.735 79.8868 393.757 74.382C394.788 68.8233 393.279 64.4277 392.095 60.8565C390.888 57.218 390.005 54.4038 390.672 50.8121C391.348 47.1665 393.749 42.2082 400.516 34.9539L395.397 30.179ZM400.516 34.9539L415.943 18.4155L410.825 13.6407L395.397 30.179L400.516 34.9539ZM439.515 71.3336L454.943 54.7952L449.824 50.0204L434.397 66.5588L439.515 71.3336ZM422.155 247.297C428.922 240.043 433.701 237.304 437.291 236.376C440.828 235.462 443.697 236.147 447.41 237.098C451.055 238.032 455.545 239.232 461.018 237.817C466.439 236.416 472.322 232.611 479.522 224.893L474.403 220.118C467.636 227.373 462.856 230.112 459.266 231.04C455.73 231.954 452.861 231.269 449.147 230.317C445.503 229.383 441.013 228.184 435.539 229.599C430.119 231 424.236 234.804 417.036 242.522L422.155 247.297ZM383.155 210.918C389.922 203.663 394.702 200.924 398.292 199.996C401.828 199.082 404.697 199.767 408.411 200.719C412.055 201.652 416.545 202.852 422.019 201.437C427.439 200.036 433.322 196.231 440.522 188.513L435.403 183.738C428.636 190.993 423.857 193.732 420.267 194.66C416.73 195.574 413.861 194.889 410.148 193.938C406.503 193.004 402.013 191.804 396.54 193.219C391.119 194.62 385.236 198.425 378.036 206.143L383.155 210.918ZM435.403 183.738C428.204 191.457 424.817 197.59 423.795 203.094C422.764 208.653 424.272 213.049 425.457 216.62C426.664 220.258 427.547 223.073 426.88 226.664C426.204 230.31 423.803 235.268 417.036 242.522L422.155 247.297C429.354 239.579 432.741 233.446 433.763 227.941C434.794 222.383 433.286 217.987 432.101 214.416C430.894 210.777 430.011 207.963 430.678 204.372C431.354 200.726 433.755 195.768 440.522 188.513L435.403 183.738ZM440.522 188.513L455.949 171.975L450.831 167.2L435.403 183.738L440.522 188.513ZM400.416 270.601L422.155 247.297L417.036 242.522L395.297 265.826L400.416 270.601ZM479.522 224.893L494.949 208.355L489.83 203.58L474.403 220.118L479.522 224.893ZM378.036 206.143L356.298 229.447L361.417 234.222L383.155 210.918L378.036 206.143ZM283.847 278.283C290.614 271.029 295.394 268.289 298.984 267.361C302.521 266.447 305.389 267.132 309.103 268.084C312.748 269.018 317.237 270.217 322.711 268.803C328.132 267.401 334.015 263.597 341.214 255.879L336.096 251.104C329.329 258.358 324.549 261.097 320.959 262.025C317.422 262.94 314.554 262.254 310.84 261.303C307.195 260.369 302.706 259.169 297.232 260.584C291.811 261.985 285.928 265.79 278.729 273.508L283.847 278.283ZM244.848 241.903C251.615 234.649 256.394 231.91 259.984 230.982C263.521 230.067 266.39 230.753 270.103 231.704C273.748 232.638 278.238 233.838 283.712 232.423C289.132 231.022 295.015 227.217 302.215 219.499L297.096 214.724C290.329 221.978 285.549 224.718 281.96 225.646C278.423 226.56 275.554 225.875 271.841 224.923C268.196 223.989 263.706 222.79 258.232 224.204C252.812 225.606 246.929 229.41 239.729 237.128L244.848 241.903ZM297.096 214.724C289.896 222.442 286.51 228.575 285.488 234.08C284.456 239.639 285.965 244.034 287.15 247.605C288.357 251.244 289.239 254.058 288.573 257.65C287.896 261.295 285.496 266.254 278.729 273.508L283.847 278.283C291.047 270.565 294.434 264.432 295.455 258.927C296.487 253.368 294.978 248.973 293.794 245.402C292.587 241.763 291.704 238.949 292.371 235.357C293.047 231.712 295.448 226.753 302.215 219.499L297.096 214.724ZM302.215 219.499L317.642 202.961L312.523 198.186L297.096 214.724L302.215 219.499ZM262.109 301.587L283.847 278.283L278.729 273.508L256.99 296.812L262.109 301.587ZM341.214 255.879L356.642 239.34L351.523 234.565L336.096 251.104L341.214 255.879ZM239.729 237.128L217.991 260.432L223.109 265.207L244.848 241.903L239.729 237.128ZM265.669 101.324C272.436 94.0694 277.216 91.3302 280.806 90.4022C284.342 89.488 287.211 90.1733 290.925 91.1247C294.569 92.0585 299.059 93.2583 304.533 91.8433C309.953 90.4421 315.836 86.6376 323.036 78.9195L317.917 74.1446C311.15 81.399 306.371 84.1381 302.781 85.0661C299.244 85.9804 296.375 85.2951 292.662 84.3437C289.017 83.4099 284.527 82.21 279.054 83.625C273.633 85.0263 267.75 88.8308 260.55 96.5489L265.669 101.324ZM226.67 64.944C227.917 63.6067 229.1 62.4195 230.224 61.3668L225.438 56.2586C224.188 57.4298 222.894 58.7296 221.551 60.1692L226.67 64.944ZM230.224 61.3668C236.01 55.9452 240.118 54.1826 243.264 53.7287C246.527 53.258 249.22 54.0703 252.967 55.0099C256.616 55.9252 260.975 56.8354 266.288 55.2537C271.502 53.7016 277.17 49.9011 284.037 42.5398L278.918 37.7649C272.466 44.6818 267.819 47.4942 264.291 48.5447C260.862 49.5656 258.05 49.068 254.669 48.2202C251.385 47.3966 247.187 46.0902 242.265 46.8004C237.226 47.5274 231.856 50.2453 225.438 56.2586L230.224 61.3668ZM278.918 37.7649C277.575 39.2045 276.368 40.5854 275.287 41.9136L280.715 46.3336C281.687 45.1396 282.789 43.8771 284.037 42.5398L278.918 37.7649ZM275.287 41.9137C269.733 48.7337 267.395 54.2796 267.019 59.3568C266.653 64.3166 268.247 68.4142 269.297 71.633C270.378 74.9469 271.069 77.717 270.289 81.2087C269.486 84.8018 267.003 89.632 260.55 96.5489L265.669 101.324C272.536 93.9624 275.934 88.0441 277.12 82.7354C278.329 77.3254 277.119 73.0404 275.952 69.463C274.755 65.7904 273.757 63.1602 274 59.873C274.235 56.703 275.708 52.4825 280.715 46.3335L275.287 41.9137ZM284.037 42.5398L299.464 26.0014L294.345 21.2266L278.918 37.7649L284.037 42.5398ZM243.931 124.628L265.669 101.324L260.55 96.5489L238.812 119.853L243.931 124.628ZM323.036 78.9195L338.463 62.3811L333.345 57.6063L317.917 74.1446L323.036 78.9195ZM221.551 60.1692L199.812 83.4732L204.931 88.248L226.67 64.944L221.551 60.1692ZM343.912 174.311C350.679 167.056 355.458 164.317 359.048 163.389C362.585 162.475 365.454 163.16 369.167 164.111C372.812 165.045 377.302 166.245 382.776 164.83C388.196 163.429 394.079 159.624 401.279 151.906L396.16 147.131C389.393 154.386 384.613 157.125 381.024 158.053C377.487 158.967 374.618 158.282 370.905 157.33C367.26 156.397 362.77 155.197 357.296 156.612C351.876 158.013 345.993 161.818 338.793 169.536L343.912 174.311ZM304.912 137.931C311.679 130.676 316.459 127.937 320.049 127.009C323.586 126.095 326.454 126.78 330.168 127.732C333.813 128.666 338.302 129.865 343.776 128.45C349.197 127.049 355.08 123.245 362.279 115.527L357.161 110.752C350.394 118.006 345.614 120.745 342.024 121.673C338.487 122.588 335.619 121.902 331.905 120.951C328.26 120.017 323.771 118.817 318.297 120.232C312.876 121.633 306.993 125.438 299.794 133.156L304.912 137.931ZM357.161 110.752C349.961 118.47 346.574 124.603 345.552 130.108C344.521 135.666 346.03 140.062 347.214 143.633C348.421 147.272 349.304 150.086 348.637 153.678C347.961 157.323 345.56 162.281 338.793 169.536L343.912 174.311C351.111 166.592 354.498 160.46 355.52 154.955C356.551 149.396 355.043 145 353.858 141.429C352.651 137.791 351.768 134.976 352.435 131.385C353.112 127.739 355.512 122.781 362.279 115.527L357.161 110.752ZM362.279 115.527L377.707 98.9882L372.588 94.2134L357.161 110.752L362.279 115.527ZM322.173 197.615L343.912 174.311L338.793 169.536L317.055 192.84L322.173 197.615ZM401.279 151.906L416.706 135.368L411.587 130.593L396.16 147.131L401.279 151.906ZM299.794 133.156L278.055 156.46L283.174 161.235L304.912 137.931L299.794 133.156Z" fill="url(#paint0_linear_232_464)"/>
<defs>
<linearGradient id="paint0_linear_232_464" x1="373" y1="4.27176" x2="196.5" y2="321.772" gradientUnits="userSpaceOnUse">
<stop stop-color="#4FD1D9"/>
<stop offset="0.669792" stop-color="#1539CE"/>
</linearGradient>
</defs>
</svg>
